<?xml version="1.0" encoding="iso-8859-1"?>
<!-- Generator: Adobe Illustrator 19.0.0, SVG Export Plug-In . SVG Version: 6.00 Build 0)  -->
<svg version="1.1" id="Capa_1" xmlns="http://www.w3.org/2000/svg" xmlns:xlink="http://www.w3.org/1999/xlink" x="0px" y="0px"
	 viewBox="0 0 512 512" style="enable-background:new 0 0 512 512;" xml:space="preserve">
<g>
	<path style="fill:#C6E2F7;" d="M289.092,222.908l26.479,5.513C338.944,191.607,381.278,130.722,384,128l-100.497,68.096
		C284.774,202.197,289.092,222.908,289.092,222.908z"/>
	<path style="fill:#C6E2F7;" d="M223.078,223.078l5.581-26.812C191.249,172.186,128,128,128,128l68.267,100.659
		C202.368,227.388,223.078,223.078,223.078,223.078z"/>
	<path style="fill:#C6E2F7;" d="M223.078,288.922l-26.812-5.581C172.177,320.759,128,384,128,384l100.659-68.267
		C227.388,309.632,223.078,288.922,223.078,288.922z"/>
	<path style="fill:#C6E2F7;" d="M288.922,288.922l-5.581,26.812C320.759,339.814,384,384,384,384l-68.267-100.659
		C309.632,284.612,288.922,288.922,288.922,288.922z"/>
</g>
<polygon style="fill:#366DB6;" points="213.333,298.667 8.533,256 213.333,213.333 256,8.533 298.667,213.333 503.467,256 
	298.667,298.667 256,503.467 "/>
<circle style="fill:#FFFFFF;" cx="256" cy="256" r="25.6"/>
<g>
	<path style="fill:#4D007E;" d="M256,512c-4.045,0-7.526-2.833-8.354-6.793l-41.523-199.322L6.793,264.354
		C2.833,263.535,0,260.045,0,256c0-4.045,2.833-7.535,6.793-8.354l199.322-41.532L247.637,6.793C248.474,2.833,251.955,0,256,0
		c4.045,0,7.526,2.833,8.354,6.793l41.523,199.322l199.322,41.532c3.968,0.819,6.801,4.309,6.801,8.354
		c0,4.045-2.833,7.535-6.793,8.354l-199.322,41.532l-41.523,199.322C263.526,509.167,260.045,512,256,512z M50.372,256
		l164.702,34.313c3.328,0.691,5.922,3.285,6.613,6.605L256,461.628l34.313-164.702c0.691-3.328,3.285-5.914,6.613-6.605L461.628,256
		l-164.702-34.313c-3.328-0.691-5.922-3.285-6.613-6.605L256,50.372l-34.313,164.702c-0.691,3.328-3.285,5.914-6.613,6.605
		L50.372,256z"/>
	<path style="fill:#4D007E;" d="M325.146,227.379c-0.58,0-1.161-0.06-1.741-0.179l-26.479-5.513
		c-3.319-0.691-5.922-3.285-6.613-6.605l-5.589-26.812c-0.717-3.456,0.768-7.006,3.738-8.917l90.923-58.522
		c3.661-2.355,8.516-1.579,11.255,1.818c2.739,3.396,2.483,8.303-0.597,11.392c-1.041,1.297-9.37,13.286-57.694,89.395
		C330.761,225.929,328.021,227.379,325.146,227.379z M305.877,206.114l15.223,3.174c14.549-22.895,25.293-39.706,33.254-52.07
		l-51.729,33.297L305.877,206.114z"/>
	<path style="fill:#4D007E;" d="M186.522,227.447c-2.859,0-5.581-1.442-7.177-3.917l-58.522-90.914
		c-2.176-3.379-1.698-7.808,1.143-10.65c2.842-2.833,7.287-3.319,10.65-1.143l90.923,58.522c2.97,1.911,4.454,5.461,3.738,8.917
		l-5.589,26.812c-0.691,3.328-3.285,5.914-6.613,6.605l-26.82,5.589C187.682,227.388,187.102,227.447,186.522,227.447z
		 M213.333,213.333h0.085H213.333z M156.484,156.484l34.039,52.881l15.59-3.251l3.251-15.59L156.484,156.484z"/>
	<path style="fill:#4D007E;" d="M128,392.533c-2.202,0-4.386-0.853-6.033-2.5c-2.842-2.842-3.319-7.279-1.143-10.65l58.522-90.914
		c1.911-2.978,5.47-4.471,8.917-3.738l26.812,5.581c3.328,0.691,5.922,3.285,6.613,6.605l5.589,26.812
		c0.717,3.456-0.768,7.006-3.738,8.917l-90.923,58.522C131.2,392.09,129.596,392.533,128,392.533z M190.524,302.635l-34.039,52.881
		l52.89-34.039l-3.251-15.59L190.524,302.635z"/>
	<path style="fill:#4D007E;" d="M384,392.533c-1.596,0-3.2-0.444-4.617-1.357l-90.923-58.522c-2.97-1.911-4.454-5.461-3.738-8.917
		l5.589-26.812c0.691-3.328,3.285-5.914,6.613-6.605l26.82-5.589c3.447-0.683,6.997,0.768,8.909,3.738l58.522,90.914
		c2.176,3.379,1.698,7.808-1.143,10.65C388.386,391.68,386.202,392.533,384,392.533z M302.635,321.476l52.89,34.039l-34.039-52.881
		l-15.59,3.251L302.635,321.476z"/>
	<path style="fill:#4D007E;" d="M256,290.133c-18.825,0-34.133-15.309-34.133-34.133s15.309-34.133,34.133-34.133
		c18.825,0,34.133,15.309,34.133,34.133C290.133,274.825,274.825,290.133,256,290.133z M256,238.933
		c-9.412,0-17.067,7.654-17.067,17.067c0,9.412,7.654,17.067,17.067,17.067c9.412,0,17.067-7.654,17.067-17.067
		C273.067,246.588,265.412,238.933,256,238.933z"/>
</g>
<g>
</g>
<g>
</g>
<g>
</g>
<g>
</g>
<g>
</g>
<g>
</g>
<g>
</g>
<g>
</g>
<g>
</g>
<g>
</g>
<g>
</g>
<g>
</g>
<g>
</g>
<g>
</g>
<g>
</g>
</svg>
