<?xml version="1.0" encoding="iso-8859-1"?>
<!-- Generator: Adobe Illustrator 19.0.0, SVG Export Plug-In . SVG Version: 6.00 Build 0)  -->
<svg version="1.1" id="Capa_1" xmlns="http://www.w3.org/2000/svg" xmlns:xlink="http://www.w3.org/1999/xlink" x="0px" y="0px"
	 viewBox="0 0 512 512" style="enable-background:new 0 0 512 512;" xml:space="preserve">
<path style="fill:#E1A546;" d="M456.403,460.17h8.016c13.282,0,24.048-10.767,24.048-24.048v-64.129h-32.065v88.177H456.403z"/>
<rect x="71.63" y="51.349" style="fill:#EDEBED;" width="432.87" height="320.64"/>
<path style="fill:#FFC850;" d="M313.086,116.93l-25.994-25.994c-4.509-4.51-10.627-7.043-17.005-7.043H135.758v39.665l194.332,0.415
	C323.712,123.974,317.596,121.44,313.086,116.93z"/>
<path style="fill:#FFDC64;" d="M432.355,123.974H201.832c-6.378,0-12.495-2.534-17.005-7.043l-25.994-25.994
	c-4.51-4.51-10.627-7.043-17.005-7.043H31.548C18.267,83.893,7.5,94.66,7.5,107.941v328.661c0,13.282,10.767,24.048,24.048,24.048
	h424.855V148.022C456.403,134.74,445.636,123.974,432.355,123.974z"/>
<path style="fill:#87C37D;" d="M71.629,356.441h160.323c8.854,0,16.032-7.178,16.032-16.032V188.104
	c0-8.854-7.178-16.032-16.032-16.032H71.629c-8.854,0-16.032,7.178-16.032,16.032v152.306
	C55.597,349.263,62.775,356.441,71.629,356.441z"/>
<path style="fill:#9BD278;" d="M215.919,331.911H87.661c-4.427,0-8.016-3.589-8.016-8.016V203.654c0-4.427,3.589-8.016,8.016-8.016
	h128.258c4.427,0,8.016,3.589,8.016,8.016v120.242C223.935,328.322,220.347,331.911,215.919,331.911z"/>
<path style="fill:#FFC850;" d="M127.742,428.105c-48.7,0-88.177-39.478-88.177-88.177V83.893h-8.016
	C18.267,83.893,7.5,94.66,7.5,107.941v328.661c0,13.282,10.767,24.048,24.048,24.048h424.855v-32.546L127.742,428.105
	L127.742,428.105z"/>
<g>
	<circle style="fill:#6F6571;" cx="167.82" cy="307.859" r="16.03"/>
	<circle style="fill:#6F6571;" cx="167.82" cy="243.74" r="16.03"/>
	<circle style="fill:#6F6571;" cx="103.69" cy="283.819" r="16.03"/>
	<circle style="fill:#6F6571;" cx="103.69" cy="219.689" r="16.03"/>
</g>
<path d="M504.5,44.088H71.629c-4.143,0-7.5,3.358-7.5,7.5v24.565h-32.58C14.152,76.152,0,90.305,0,107.701v328.661
	c0,17.396,14.152,31.549,31.549,31.549h432.87c17.396,0,31.549-14.153,31.549-31.549v-56.629h8.532c4.143,0,7.5-3.358,7.5-7.5
	V51.588C512,47.446,508.643,44.088,504.5,44.088z M480.968,436.362c0,9.125-7.424,16.549-16.549,16.549H31.549
	c-9.125,0-16.549-7.424-16.549-16.549V107.701c0-9.125,7.424-16.548,16.549-16.548h110.28c4.421,0,8.576,1.721,11.701,4.847
	l25.993,25.993c5.959,5.959,13.882,9.24,22.309,9.24h64.129c4.143,0,7.5-3.358,7.5-7.5s-3.357-7.5-7.5-7.5
	c-4.42,0-8.575-1.721-11.701-4.847l-20.233-20.234h36.061c4.421,0,8.576,1.721,11.701,4.847l20.234,20.234h-5.945
	c-4.143,0-7.5,3.358-7.5,7.5s3.357,7.5,7.5,7.5h136.277c9.125,0,16.549,7.424,16.549,16.548v280.564c0,4.142,3.357,7.5,7.5,7.5
	s7.5-3.358,7.5-7.5v-48.613h17.064V436.362z M205.958,91.152c4.421,0,8.576,1.721,11.701,4.847l20.234,20.234h-36.061
	c-4.421,0-8.576-1.721-11.701-4.847l-20.233-20.234H205.958z M497,364.733h-33.097V147.781c0-17.396-14.152-31.548-31.549-31.548
	H330.09c-4.42,0-8.575-1.721-11.701-4.847l-25.993-25.993c-5.959-5.959-13.881-9.24-22.309-9.24H79.129V59.088H497V364.733z"/>
<path d="M231.951,164.33H71.629c-12.976,0-23.532,10.556-23.532,23.532v152.307c0,12.976,10.557,23.532,23.532,23.532h160.322
	c12.976,0,23.532-10.556,23.532-23.532V187.863C255.483,174.886,244.927,164.33,231.951,164.33z M240.483,187.863v8.532h-40.597
	c-0.284,0-0.516-0.231-0.516-0.516v-16.549h32.58C236.656,179.33,240.483,183.158,240.483,187.863z M231.951,348.701h-93.086
	l-25.172-25.172c-1.611-1.612-2.499-3.754-2.499-6.033v-11.14c9.308-3.139,16.032-11.946,16.032-22.3
	c0-12.976-10.557-23.532-23.532-23.532s-23.532,10.557-23.532,23.532c0,10.354,6.724,19.16,16.032,22.3v11.14
	c0,6.286,2.448,12.195,6.893,16.64l14.565,14.566H71.629c-4.705,0-8.532-3.828-8.532-8.532V187.863c0-4.705,3.827-8.532,8.532-8.532
	h62.054l-19.527,19.527c-3.154-1.573-6.706-2.463-10.463-2.463c-12.976,0-23.532,10.557-23.532,23.532s10.557,23.532,23.532,23.532
	s23.532-10.557,23.532-23.532c0-3.757-0.89-7.309-2.462-10.463l30.134-30.134h29.474v16.549c0,8.556,6.96,15.516,15.516,15.516
	h40.597v25.081h-50.362c-3.139-9.308-11.946-16.032-22.3-16.032c-12.976,0-23.532,10.557-23.532,23.532
	c0,12.975,10.557,23.532,23.532,23.532c10.354,0,19.16-6.724,22.3-16.032h50.362v25.081h-8.532c-6.285,0-12.194,2.448-16.64,6.893
	l-14.656,14.657c-1.612,1.612-3.755,2.499-6.033,2.499h-4.5c-3.139-9.308-11.946-16.032-22.3-16.032
	c-12.976,0-23.532,10.556-23.532,23.532s10.557,23.532,23.532,23.532c10.354,0,19.16-6.724,22.3-16.032h4.5
	c6.285,0,12.194-2.448,16.64-6.892l14.656-14.657c1.612-1.612,3.755-2.499,6.033-2.499h8.532v48.613
	C240.483,344.873,236.656,348.701,231.951,348.701z M103.693,292.588c-4.705,0-8.532-3.828-8.532-8.532s3.827-8.532,8.532-8.532
	s8.532,3.828,8.532,8.532S108.398,292.588,103.693,292.588z M112.226,219.926c0,4.705-3.827,8.532-8.532,8.532
	s-8.532-3.828-8.532-8.532s3.827-8.532,8.532-8.532S112.226,215.223,112.226,219.926z M176.354,243.975
	c0,4.705-3.827,8.532-8.532,8.532s-8.532-3.828-8.532-8.532s3.827-8.532,8.532-8.532S176.354,239.27,176.354,243.975z
	 M176.354,308.104c0,4.705-3.827,8.532-8.532,8.532s-8.532-3.828-8.532-8.532c0-4.705,3.827-8.532,8.532-8.532
	S176.354,303.399,176.354,308.104z"/>
<path d="M288.064,195.363h56.113c4.143,0,7.5-3.358,7.5-7.5s-3.357-7.5-7.5-7.5h-56.113c-4.143,0-7.5,3.358-7.5,7.5
	S283.922,195.363,288.064,195.363z"/>
<path d="M376.242,212.426h-88.178c-4.143,0-7.5,3.358-7.5,7.5s3.357,7.5,7.5,7.5h88.178c4.143,0,7.5-3.358,7.5-7.5
	S380.385,212.426,376.242,212.426z"/>
<g>
</g>
<g>
</g>
<g>
</g>
<g>
</g>
<g>
</g>
<g>
</g>
<g>
</g>
<g>
</g>
<g>
</g>
<g>
</g>
<g>
</g>
<g>
</g>
<g>
</g>
<g>
</g>
<g>
</g>
</svg>
