<?xml version="1.0" encoding="iso-8859-1"?>
<!-- Generator: Adobe Illustrator 19.0.0, SVG Export Plug-In . SVG Version: 6.00 Build 0)  -->
<svg xmlns="http://www.w3.org/2000/svg" xmlns:xlink="http://www.w3.org/1999/xlink" version="1.1" id="Capa_1" x="0px" y="0px" viewBox="0 0 512 512" style="enable-background:new 0 0 512 512;" xml:space="preserve" width="512px" height="512px">
<g>
	<g>
		<path d="M470.204,157.958l-195-150.985C269.813,2.476,263.002,0,256,0s-13.828,2.476-19.204,6.973L41.811,157.958    c-12.863,10.693-14.368,29.641-3.853,42.231c10.651,12.821,29.707,14.261,42.246,3.853L256,70.053l175.796,133.989    c12.724,10.58,31.617,8.93,42.246-3.853C484.646,187.494,482.948,168.578,470.204,157.958z" fill="#498ab8"/>
	</g>
</g>
<g>
	<g>
		<path d="M467,422c-19.53,0-36.024,12.578-42.237,30H298.237c-4.532-12.708-14.529-22.705-27.237-27.237V391h135    c8.291,0,15-6.709,15-15V232.92c-2.935-1.694-5.748-3.622-8.379-5.806L256,107.772L98.383,227.904    c-2.254,1.88-4.757,3.545-7.383,5.059V376c0,8.291,6.709,15,15,15h135v33.763c-12.708,4.532-22.705,14.529-27.237,27.237H87.237    C81.024,434.578,64.53,422,45,422c-24.814,0-45,20.186-45,45c0,24.814,20.186,45,45,45c19.53,0,36.024-12.578,42.237-30h126.526    c6.213,17.422,22.707,30,42.237,30c19.53,0,36.024-12.578,42.237-30h126.526c6.213,17.422,22.707,30,42.237,30    c24.814,0,45-20.186,45-45C512,442.186,491.814,422,467,422z M181,256c0-41.353,33.647-75,75-75c41.353,0,75,33.647,75,75    c0,15.26-4.634,29.436-12.495,41.294l38.101,38.101c5.859,5.859,5.859,15.352,0,21.211s-15.352,5.859-21.211,0l-38.101-38.101    C285.436,326.366,271.26,331,256,331C214.647,331,181,297.353,181,256z" fill="#498ab8"/>
	</g>
</g>
<g>
	<g>
		<path d="M256,211c-24.814,0-45,20.186-45,45c0,24.814,20.186,45,45,45c24.814,0,45-20.186,45-45C301,231.186,280.814,211,256,211z    " fill="#498ab8"/>
	</g>
</g>
<g>
</g>
<g>
</g>
<g>
</g>
<g>
</g>
<g>
</g>
<g>
</g>
<g>
</g>
<g>
</g>
<g>
</g>
<g>
</g>
<g>
</g>
<g>
</g>
<g>
</g>
<g>
</g>
<g>
</g>
</svg>
