<?xml version="1.0" encoding="iso-8859-1"?>
<!-- Generator: Adobe Illustrator 18.0.0, SVG Export Plug-In . SVG Version: 6.00 Build 0)  -->
<!DOCTYPE svg PUBLIC "-//W3C//DTD SVG 1.1//EN" "http://www.w3.org/Graphics/SVG/1.1/DTD/svg11.dtd">
<svg version="1.1" id="Capa_1" xmlns="http://www.w3.org/2000/svg" xmlns:xlink="http://www.w3.org/1999/xlink" x="0px" y="0px"
	 viewBox="0 0 493.93 493.93" style="enable-background:new 0 0 493.93 493.93;" xml:space="preserve">
<g>
	<path d="M246.965,0.002C110.566,0.002,0,110.568,0,246.967c0,136.395,110.566,246.961,246.965,246.961
		S493.93,383.361,493.93,246.967C493.93,110.568,383.363,0.002,246.965,0.002z M392.707,296.01
		c-3.665,3.682-9.169,4.76-13.933,2.783c-4.785-1.98-7.904-6.633-7.904-11.822v-23.395H263.567v107.293h23.388
		c5.164,0,9.833,3.111,11.829,7.902c1.978,4.775,0.899,10.264-2.791,13.943l-39.979,39.984c-4.98,4.994-13.093,4.994-18.088,0
		l-40.005-39.984c-3.685-3.672-4.76-9.176-2.785-13.936c1.98-4.789,6.635-7.91,11.824-7.91h23.402V263.576H123.06v23.387
		c0,5.166-3.114,9.834-7.904,11.83c-4.773,1.977-10.264,0.898-13.943-2.791L61.232,256.02c-4.994-4.977-4.994-13.094,0-18.086
		l39.979-40.006c3.676-3.68,9.18-4.76,13.939-2.781c4.789,1.979,7.908,6.631,7.908,11.82v23.404h107.303V123.061h-23.397
		c-5.169,0-9.834-3.104-11.829-7.904c-1.975-4.766-0.9-10.264,2.79-13.936l39.985-39.982c4.975-4.994,13.094-4.994,18.082,0
		l40.011,39.982c3.68,3.666,4.759,9.17,2.78,13.936c-1.98,4.783-6.63,7.904-11.819,7.904h-23.397v107.311H370.87v-23.398
		c0-5.172,3.104-9.834,7.904-11.826c4.764-1.979,10.264-0.898,13.933,2.787l39.985,39.984c4.994,4.977,4.994,13.092,0,18.086
		L392.707,296.01z"/>
</g>
<g>
</g>
<g>
</g>
<g>
</g>
<g>
</g>
<g>
</g>
<g>
</g>
<g>
</g>
<g>
</g>
<g>
</g>
<g>
</g>
<g>
</g>
<g>
</g>
<g>
</g>
<g>
</g>
<g>
</g>
</svg>
