<?xml version="1.0" encoding="iso-8859-1"?>
<!-- Generator: Adobe Illustrator 19.0.0, SVG Export Plug-In . SVG Version: 6.00 Build 0)  -->
<svg version="1.1" id="Capa_1" xmlns="http://www.w3.org/2000/svg" xmlns:xlink="http://www.w3.org/1999/xlink" x="0px" y="0px"
	 viewBox="0 0 512 512" style="enable-background:new 0 0 512 512;" xml:space="preserve">
<path style="fill:#366DB6;" d="M441.378,206.566c0,109.206-185.379,296.606-185.379,296.606S70.62,315.772,70.62,206.566
	S153.617,8.828,255.999,8.828S441.378,97.359,441.378,206.566z"/>
<circle style="fill:#FFFFFF;" cx="255.999" cy="194.21" r="88.28"/>
<g>
	<path style="fill:#4D007E;" d="M255.999,512c-2.357,0-4.617-0.945-6.276-2.622c-7.671-7.751-187.93-191.258-187.93-302.813
		C61.792,92.663,148.912,0,255.999,0s194.207,92.663,194.207,206.566c0,111.554-180.259,295.062-187.93,302.813
		C260.617,511.055,258.357,512,255.999,512z M255.999,17.655c-97.351,0-176.552,84.745-176.552,188.91
		c0,93.219,144.402,250.121,176.552,283.886c32.132-33.766,176.552-190.702,176.552-283.886
		C432.552,102.4,353.351,17.655,255.999,17.655z"/>
	<path style="fill:#4D007E;" d="M255.999,291.31c-53.539,0-97.103-43.564-97.103-97.103s43.564-97.104,97.103-97.104
		s97.103,43.564,97.103,97.103S309.539,291.31,255.999,291.31z M255.999,114.759c-43.811,0-79.448,35.646-79.448,79.448
		s35.637,79.448,79.448,79.448s79.448-35.646,79.448-79.448S299.81,114.759,255.999,114.759z"/>
</g>
<g>
</g>
<g>
</g>
<g>
</g>
<g>
</g>
<g>
</g>
<g>
</g>
<g>
</g>
<g>
</g>
<g>
</g>
<g>
</g>
<g>
</g>
<g>
</g>
<g>
</g>
<g>
</g>
<g>
</g>
</svg>
